name rise32.9588peak41.5061fall63.4684.mot
datacolumns 19
datarows 24
range 17.49160500000000 17.52993400000000
endheader
time	ground_force1_vx	ground_force1_vy	ground_force1_vz	ground_force1_px	ground_force1_py	ground_force1_pz	ground_force2_vx	ground_force2_vy	ground_force2_vz	ground_force2_px	ground_force2_py	ground_force2_pz	ground_torque1_x	ground_torque1_y	ground_torque1_z	ground_torque2_x	ground_torque2_y	ground_torque2_z	
17.49160500000000	9.19227600000000	703.32781299999999	45.05350100000000	0.18288000000000	0.00000000000000	0.13215600000000	0.00000000000000	0.00000000000000	0.00000000000000	0.00000000000000	0.00000000000000	0.00000000000000	0.00000000000000	12.63830500000000	0.00000000000000	0.00000000000000	0.00000000000000	0.00000000000000	
17.49326400000000	8.94475900000000	703.34045200000003	45.01589900000000	0.18196500000000	0.00000000000000	0.13207500000000	0.00000000000000	0.00000000000000	0.00000000000000	0.00000000000000	0.00000000000000	0.00000000000000	0.00000000000000	12.63984000000000	0.00000000000000	0.00000000000000	0.00000000000000	0.00000000000000	
17.49493000000000	8.68893000000000	703.41036899999995	44.98348600000000	0.18104000000000	0.00000000000000	0.13199300000000	0.00000000000000	0.00000000000000	0.00000000000000	0.00000000000000	0.00000000000000	0.00000000000000	0.00000000000000	12.64576400000000	0.00000000000000	0.00000000000000	0.00000000000000	0.00000000000000	
17.49659800000000	8.42453200000000	703.53701500000000	44.95603400000000	0.18010700000000	0.00000000000000	0.13190900000000	0.00000000000000	0.00000000000000	0.00000000000000	0.00000000000000	0.00000000000000	0.00000000000000	0.00000000000000	12.65603700000000	0.00000000000000	0.00000000000000	0.00000000000000	0.00000000000000	
17.49827200000000	8.15133100000000	703.71980799999994	44.93331200000000	0.17916500000000	0.00000000000000	0.13182500000000	0.00000000000000	0.00000000000000	0.00000000000000	0.00000000000000	0.00000000000000	0.00000000000000	0.00000000000000	12.67061300000000	0.00000000000000	0.00000000000000	0.00000000000000	0.00000000000000	
17.49992900000000	7.86911700000000	703.95813899999996	44.91509200000000	0.17821700000000	0.00000000000000	0.13174000000000	0.00000000000000	0.00000000000000	0.00000000000000	0.00000000000000	0.00000000000000	0.00000000000000	0.00000000000000	12.68944400000000	0.00000000000000	0.00000000000000	0.00000000000000	0.00000000000000	
17.50159700000000	7.57770700000000	704.25137800000005	44.90114500000000	0.17726100000000	0.00000000000000	0.13165400000000	0.00000000000000	0.00000000000000	0.00000000000000	0.00000000000000	0.00000000000000	0.00000000000000	0.00000000000000	12.71247600000000	0.00000000000000	0.00000000000000	0.00000000000000	0.00000000000000	
17.50326500000000	7.27693700000000	704.59888100000001	44.89124800000000	0.17630000000000	0.00000000000000	0.13156700000000	0.00000000000000	0.00000000000000	0.00000000000000	0.00000000000000	0.00000000000000	0.00000000000000	0.00000000000000	12.73965500000000	0.00000000000000	0.00000000000000	0.00000000000000	0.00000000000000	
17.50493100000000	6.96667200000000	704.99999100000002	44.88518000000000	0.17533400000000	0.00000000000000	0.13147900000000	0.00000000000000	0.00000000000000	0.00000000000000	0.00000000000000	0.00000000000000	0.00000000000000	0.00000000000000	12.77091900000000	0.00000000000000	0.00000000000000	0.00000000000000	0.00000000000000	
17.50659900000000	6.64679700000000	705.45404699999995	44.88272700000000	0.17436400000000	0.00000000000000	0.13139000000000	0.00000000000000	0.00000000000000	0.00000000000000	0.00000000000000	0.00000000000000	0.00000000000000	0.00000000000000	12.80620600000000	0.00000000000000	0.00000000000000	0.00000000000000	0.00000000000000	
17.50826700000000	6.31722300000000	705.96038399999998	44.88368100000000	0.17339000000000	0.00000000000000	0.13130100000000	0.00000000000000	0.00000000000000	0.00000000000000	0.00000000000000	0.00000000000000	0.00000000000000	0.00000000000000	12.84544800000000	0.00000000000000	0.00000000000000	0.00000000000000	0.00000000000000	
17.50993500000000	5.97788300000000	706.51833799999997	44.88784300000000	0.17241400000000	0.00000000000000	0.13121000000000	0.00000000000000	0.00000000000000	0.00000000000000	0.00000000000000	0.00000000000000	0.00000000000000	0.00000000000000	12.88857600000000	0.00000000000000	0.00000000000000	0.00000000000000	0.00000000000000	
17.51160400000000	5.62873400000000	707.12725000000000	44.89502200000000	0.17143700000000	0.00000000000000	0.13111900000000	0.00000000000000	0.00000000000000	0.00000000000000	0.00000000000000	0.00000000000000	0.00000000000000	0.00000000000000	12.93551600000000	0.00000000000000	0.00000000000000	0.00000000000000	0.00000000000000	
17.51326400000000	5.26975500000000	707.78646800000001	44.90503800000000	0.17045900000000	0.00000000000000	0.13102700000000	0.00000000000000	0.00000000000000	0.00000000000000	0.00000000000000	0.00000000000000	0.00000000000000	0.00000000000000	12.98619000000000	0.00000000000000	0.00000000000000	0.00000000000000	0.00000000000000	
17.51493000000000	4.90094600000000	708.49534800000004	44.91772200000000	0.16948200000000	0.00000000000000	0.13093400000000	0.00000000000000	0.00000000000000	0.00000000000000	0.00000000000000	0.00000000000000	0.00000000000000	0.00000000000000	13.04051900000000	0.00000000000000	0.00000000000000	0.00000000000000	0.00000000000000	
17.51660500000000	4.52233200000000	709.25325899999996	44.93291500000000	0.16850500000000	0.00000000000000	0.13084100000000	0.00000000000000	0.00000000000000	0.00000000000000	0.00000000000000	0.00000000000000	0.00000000000000	0.00000000000000	13.09841700000000	0.00000000000000	0.00000000000000	0.00000000000000	0.00000000000000	
17.51826700000000	4.13395600000000	710.05957899999999	44.95047300000000	0.16752900000000	0.00000000000000	0.13074700000000	0.00000000000000	0.00000000000000	0.00000000000000	0.00000000000000	0.00000000000000	0.00000000000000	0.00000000000000	13.15979900000000	0.00000000000000	0.00000000000000	0.00000000000000	0.00000000000000	
17.51993700000000	3.73588400000000	710.91370099999995	44.97026600000000	0.16655600000000	0.00000000000000	0.13065200000000	0.00000000000000	0.00000000000000	0.00000000000000	0.00000000000000	0.00000000000000	0.00000000000000	0.00000000000000	13.22457500000000	0.00000000000000	0.00000000000000	0.00000000000000	0.00000000000000	
17.52159600000000	3.32820100000000	711.81502899999998	44.99217600000000	0.16558600000000	0.00000000000000	0.13055700000000	0.00000000000000	0.00000000000000	0.00000000000000	0.00000000000000	0.00000000000000	0.00000000000000	0.00000000000000	13.29264900000000	0.00000000000000	0.00000000000000	0.00000000000000	0.00000000000000	
17.52326700000000	2.91101100000000	712.76298199999997	45.01610300000000	0.16462000000000	0.00000000000000	0.13046100000000	0.00000000000000	0.00000000000000	0.00000000000000	0.00000000000000	0.00000000000000	0.00000000000000	0.00000000000000	13.36392600000000	0.00000000000000	0.00000000000000	0.00000000000000	0.00000000000000	
17.52493600000000	2.48443900000000	713.75698799999998	45.04195800000000	0.16365700000000	0.00000000000000	0.13036500000000	0.00000000000000	0.00000000000000	0.00000000000000	0.00000000000000	0.00000000000000	0.00000000000000	0.00000000000000	13.43830500000000	0.00000000000000	0.00000000000000	0.00000000000000	0.00000000000000	
17.52659800000000	2.04862700000000	714.79648599999996	45.06967200000000	0.16269900000000	0.00000000000000	0.13026900000000	0.00000000000000	0.00000000000000	0.00000000000000	0.00000000000000	0.00000000000000	0.00000000000000	0.00000000000000	13.51568300000000	0.00000000000000	0.00000000000000	0.00000000000000	0.00000000000000	
17.52827200000000	1.60373700000000	715.88092500000005	45.09919100000000	0.16174500000000	0.00000000000000	0.13017200000000	0.00000000000000	0.00000000000000	0.00000000000000	0.00000000000000	0.00000000000000	0.00000000000000	0.00000000000000	13.59595200000000	0.00000000000000	0.00000000000000	0.00000000000000	0.00000000000000	
17.52993400000000	1.14994600000000	717.00975800000003	45.13047700000000	0.16079700000000	0.00000000000000	0.13007500000000	0.00000000000000	0.00000000000000	0.00000000000000	0.00000000000000	0.00000000000000	0.00000000000000	0.00000000000000	13.67900400000000	0.00000000000000	0.00000000000000	0.00000000000000	0.00000000000000	
